<?xml version="1.0" encoding="UTF-8" standalone="no"?>
<!-- Created with Inkscape (http://www.inkscape.org/) -->

<svg
   width="32"
   height="32"
   viewBox="0 0 32 32"
   version="1.1"
   id="svg1"
   xmlns="http://www.w3.org/2000/svg"
   xmlns:svg="http://www.w3.org/2000/svg">
  <defs
     id="defs1" />
  <g
     id="layer1">
    <rect
       style="opacity:0.997596;fill:#d6857f;fill-opacity:1"
       id="rect2"
       width="32"
       height="32"
       x="0"
       y="0" />
    <path
       d="m 4.4696406,15.479998 q 0,0 0.304,-0.112 0.304,-0.12 0.784,-0.296 0.488,-0.184 1.032,-0.384 0.544,-0.208 1.032,-0.392 0.496,-0.184 0.808,-0.296 l -0.168,0.2 q 0.064,-0.176 0.104,-0.424 0.04,-0.256 0.048,-0.616 0,-0.552 -0.216,-0.904 -0.208,-0.352 -0.56,-0.352 -0.376,0 -0.76,0.28 -0.384,0.272 -0.728,0.776 -0.336,0.496 -0.584,1.184 -0.24,0.688 -0.328,1.512 -0.12,1.208 0.304,1.832 0.424,0.624 1.248,0.624 0.488,0 0.928,-0.192 0.44,-0.2 0.8,-0.576 0.368,-0.384 0.608,-0.952 0.072,-0.12 0.128,-0.16 0.064,-0.04 0.136,-0.04 0.08,0.008 0.12,0.08 0.048,0.072 0.008,0.232 -0.208,0.696 -0.68,1.256 -0.472,0.56 -1.192,0.888 -0.712,0.32 -1.664,0.32 -0.832,0 -1.392,-0.344 -0.552,-0.344 -0.8,-1 -0.24,-0.656 -0.152,-1.584 0.088,-0.92 0.456,-1.736 0.376,-0.824 0.952,-1.456 0.584,-0.632 1.304,-0.992 0.72,-0.36 1.512,-0.36 0.6,0 1.008,0.248 0.408,0.248 0.616,0.664 0.208,0.408 0.224,0.904 0,0.104 0.048,0.168 0.056,0.064 0.168,0.056 0.088,0 0.1280004,0.032 0.04,0.032 0.048,0.096 0,0.08 -0.064,0.152 -0.064,0.064 -0.2480004,0.128 -0.216,0.072 -0.688,0.24 -0.464,0.16 -1.064,0.376 -0.592,0.216 -1.208,0.44 -0.616,0.216 -1.144,0.408 -0.52,0.184 -0.84,0.304 -0.32,0.112 -0.32,0.112 z"
       id="text1"
       style="font-size:16px;font-family:'Fraunces 72pt';-inkscape-font-specification:'Fraunces 72pt';white-space:pre;opacity:0.997596"
       transform="matrix(3.7609522,0,0,3.5790733,-9.6708978,-38.516437)"
       aria-label="e" />
  </g>
</svg>
